<svg xmlns="http://www.w3.org/2000/svg" width="37" height="24" viewBox="0 0 37 24"><defs><style>.a{fill:#f0f0f0;}.b{fill:#d80027;}.c{fill:#2e52b2;}</style></defs><rect class="a" width="37" height="24" transform="translate(0 0)"/><g transform="translate(0 3.084)"><rect class="b" width="37" height="3.084"/><rect class="b" width="37" height="3.084" transform="translate(0 5.928)"/><rect class="b" width="37" height="3.084" transform="translate(0 11.903)"/><rect class="b" width="37" height="3.084" transform="translate(0 17.831)"/></g><rect class="c" width="18.508" height="13.288" transform="translate(0 0)"/><g transform="translate(1.88 2.134)"><path class="a" d="M83.625,160.624l-.3.917h-.964l.78.566-.3.917.78-.566.78.566-.3-.917.78-.566h-.964Z" transform="translate(-78.288 -157.315)"/><path class="a" d="M83.923,207.314l-.3-.917-.3.917h-.964l.78.567-.3.917.78-.566.78.566-.3-.917.78-.567Z" transform="translate(-78.288 -199.779)"/><path class="a" d="M27.561,207.314l-.3-.917-.3.917H26l.78.567-.3.917.78-.566.78.566-.3-.917.78-.567Z" transform="translate(-26.001 -199.779)"/><path class="a" d="M27.263,160.624l-.3.917H26l.78.566-.3.917.78-.566.78.566-.3-.917.78-.566h-.964Z" transform="translate(-26.001 -157.315)"/><path class="a" d="M83.625,114.85l-.3.917h-.964l.78.567-.3.917.78-.567.78.567-.3-.917.78-.567h-.964Z" transform="translate(-78.288 -114.85)"/><path class="a" d="M27.263,114.85l-.3.917H26l.78.567-.3.917.78-.567.78.567-.3-.917.78-.567h-.964Z" transform="translate(-26.001 -114.85)"/><path class="a" d="M139.987,160.624l-.3.917h-.964l.78.566-.3.917.78-.566.78.566-.3-.917.78-.566h-.964Z" transform="translate(-130.576 -157.315)"/><path class="a" d="M140.285,207.314l-.3-.917-.3.917h-.964l.78.567-.3.917.78-.566.78.566-.3-.917.78-.567Z" transform="translate(-130.576 -199.779)"/><path class="a" d="M196.648,207.314l-.3-.917-.3.917h-.964l.78.567-.3.917.78-.566.78.566-.3-.917.78-.567Z" transform="translate(-182.864 -199.779)"/><path class="a" d="M196.35,160.624l-.3.917h-.964l.78.566-.3.917.78-.566.78.566-.3-.917.78-.566h-.964Z" transform="translate(-182.864 -157.315)"/><path class="a" d="M139.987,114.85l-.3.917h-.964l.78.567-.3.917.78-.567.78.567-.3-.917.78-.567h-.964Z" transform="translate(-130.576 -114.85)"/><path class="a" d="M196.35,114.85l-.3.917h-.964l.78.567-.3.917.78-.567.78.567-.3-.917.78-.567h-.964Z" transform="translate(-182.864 -114.85)"/></g></svg>